<svg id="Layer_1" data-name="Layer 1" xmlns="http://www.w3.org/2000/svg" viewBox="0 0 90 32"><path d="M13.29,16c.08.17.15.33.22.51l.21-.52.24-.48,2.24-4.42a.7.7,0,0,1,.12-.18.55.55,0,0,1,.14-.09.57.57,0,0,1,.18,0h1.78V19.5H16.63v-5c0-.25,0-.51,0-.8l-2.32,4.5a.73.73,0,0,1-.71.42h-.27a.73.73,0,0,1-.71-.42l-2.33-4.5c0,.14,0,.28,0,.41s0,.27,0,.39v5H8.59V10.77h1.78a.48.48,0,0,1,.18,0,.42.42,0,0,1,.14.09.7.7,0,0,1,.12.18l2.25,4.44C13.14,15.66,13.22,15.82,13.29,16Z"/><path d="M22.4,21.12a.64.64,0,0,1-.2.27.64.64,0,0,1-.38.09h-1.4L21.62,19l-2.48-5.68h1.64a.49.49,0,0,1,.34.1.48.48,0,0,1,.17.23l1,2.68a7,7,0,0,1,.23.74c0-.13.09-.25.13-.38s.1-.25.14-.37l.93-2.67a.44.44,0,0,1,.19-.24.53.53,0,0,1,.3-.09h1.5Z"/><path d="M32.12,10.76v1.56H28.54v2.22h3V16.1h-3v3.4h-2V10.76Z"/><path d="M37.48,19.5a.84.84,0,0,1-.4-.07.57.57,0,0,1-.23-.3l-.13-.34-.45.35a2.46,2.46,0,0,1-.45.25,2.56,2.56,0,0,1-.49.16,3.39,3.39,0,0,1-.58.05,2.65,2.65,0,0,1-.77-.11,1.77,1.77,0,0,1-.59-.33,1.32,1.32,0,0,1-.38-.54,1.88,1.88,0,0,1-.13-.74,1.61,1.61,0,0,1,.75-1.32,3.8,3.8,0,0,1,1.12-.48,7.13,7.13,0,0,1,1.77-.19v-.27a1.15,1.15,0,0,0-.23-.79.83.83,0,0,0-.64-.25,1.62,1.62,0,0,0-.54.08,1.79,1.79,0,0,0-.37.16l-.32.16a.89.89,0,0,1-.38.07.57.57,0,0,1-.32-.09.8.8,0,0,1-.22-.23l-.33-.58a3.72,3.72,0,0,1,1.25-.75,4.44,4.44,0,0,1,1.47-.24,2.73,2.73,0,0,1,1,.18,2.46,2.46,0,0,1,.77.51,2.22,2.22,0,0,1,.48.78,2.84,2.84,0,0,1,.17,1V19.5Zm-2.14-1.13a1.39,1.39,0,0,0,.63-.13,2.06,2.06,0,0,0,.55-.4V17a4.55,4.55,0,0,0-.92.08,2.4,2.4,0,0,0-.57.18.61.61,0,0,0-.29.25.65.65,0,0,0,.09.75A.84.84,0,0,0,35.34,18.37Z"/><path d="M41.51,10.52v5h.27a.62.62,0,0,0,.27-.05.51.51,0,0,0,.18-.18l1.17-1.75a.68.68,0,0,1,.25-.23.87.87,0,0,1,.35-.07h1.71L44.1,15.5a2.16,2.16,0,0,1-.25.27,3.15,3.15,0,0,1-.29.22,1.67,1.67,0,0,1,.47.54l1.75,3H44.1a1,1,0,0,1-.36-.06.51.51,0,0,1-.25-.25L42.31,17a.44.44,0,0,0-.17-.2.85.85,0,0,0-.27,0h-.36V19.5H39.65v-9Z"/><path d="M48.86,13.19a3.21,3.21,0,0,1,1.14.19,2.44,2.44,0,0,1,1.45,1.45A3.3,3.3,0,0,1,51.66,16a3,3,0,0,1,0,.34.53.53,0,0,1-.06.21.33.33,0,0,1-.13.11.66.66,0,0,1-.21,0H47.65a1.75,1.75,0,0,0,.48,1.13,1.41,1.41,0,0,0,1,.35,1.77,1.77,0,0,0,.55-.08,2.81,2.81,0,0,0,.42-.17l.34-.18a.72.72,0,0,1,.32-.08.38.38,0,0,1,.33.16l.54.67a2.62,2.62,0,0,1-.62.54,3.23,3.23,0,0,1-.68.32,3,3,0,0,1-.7.16,5.43,5.43,0,0,1-.67.05,3.53,3.53,0,0,1-1.23-.21,3,3,0,0,1-1-.64,2.94,2.94,0,0,1-.68-1,4,4,0,0,1-.25-1.45A3.1,3.1,0,0,1,46,15.08a2.75,2.75,0,0,1,.61-1,3,3,0,0,1,1-.67A3.28,3.28,0,0,1,48.86,13.19Zm0,1.28a1.11,1.11,0,0,0-.83.3,1.57,1.57,0,0,0-.4.88H50a2.12,2.12,0,0,0-.05-.44,1.18,1.18,0,0,0-.19-.37,1,1,0,0,0-.34-.27A1.13,1.13,0,0,0,48.9,14.47Z"/><path d="M57.6,12.54a.66.66,0,0,1-.19.21.41.41,0,0,1-.25.08.58.58,0,0,1-.3-.09l-.36-.2a3.36,3.36,0,0,0-.46-.19,1.78,1.78,0,0,0-.59-.09,1.29,1.29,0,0,0-.85.24.87.87,0,0,0-.28.66.62.62,0,0,0,.17.44,1.31,1.31,0,0,0,.44.3,5.64,5.64,0,0,0,.63.23l.71.23a5.78,5.78,0,0,1,.72.31,2.47,2.47,0,0,1,.63.44,2.24,2.24,0,0,1,.44.66,2.38,2.38,0,0,1,.16.93A3.08,3.08,0,0,1,58,17.84a2.82,2.82,0,0,1-.6.92,2.91,2.91,0,0,1-1,.61,3.47,3.47,0,0,1-1.33.23,4.76,4.76,0,0,1-.83-.08,5.91,5.91,0,0,1-.82-.24,4.61,4.61,0,0,1-.74-.36,3.28,3.28,0,0,1-.61-.47l.6-.95a.52.52,0,0,1,.19-.17.46.46,0,0,1,.26-.07.72.72,0,0,1,.36.11l.41.26a4.38,4.38,0,0,0,.53.25,2.16,2.16,0,0,0,.71.11,1.35,1.35,0,0,0,.86-.24.94.94,0,0,0,.31-.77.74.74,0,0,0-.17-.5,1.35,1.35,0,0,0-.44-.32,4.48,4.48,0,0,0-.62-.22c-.24-.06-.47-.14-.72-.21a6.22,6.22,0,0,1-.71-.29A2.52,2.52,0,0,1,53,15a2,2,0,0,1-.44-.7,2.61,2.61,0,0,1-.17-1,2.48,2.48,0,0,1,.78-1.79,3,3,0,0,1,.94-.59,3.62,3.62,0,0,1,1.28-.21,4.93,4.93,0,0,1,.78.06,4,4,0,0,1,.72.18,3.78,3.78,0,0,1,.64.3,2.34,2.34,0,0,1,.53.39Z"/><path d="M61.42,19.6a2.15,2.15,0,0,1-.79-.13,1.85,1.85,0,0,1-.57-.36,1.61,1.61,0,0,1-.35-.58,2.19,2.19,0,0,1-.12-.75V14.57h-.53a.37.37,0,0,1-.24-.1.33.33,0,0,1-.1-.27v-.73l1-.19.36-1.52a.37.37,0,0,1,.41-.28h1v1.81H63v1.28H61.45v3.09a.56.56,0,0,0,.11.35.34.34,0,0,0,.3.14.44.44,0,0,0,.17,0,.33.33,0,0,0,.12-.05l.1,0a.16.16,0,0,1,.1,0,.29.29,0,0,1,.14,0,.49.49,0,0,1,.1.13l.57.88a2.56,2.56,0,0,1-.81.4A3.22,3.22,0,0,1,61.42,19.6Z"/><path d="M66.8,13.19a3.49,3.49,0,0,1,1.29.22,2.94,2.94,0,0,1,1,.63,2.79,2.79,0,0,1,.65,1A3.71,3.71,0,0,1,70,16.38a3.8,3.8,0,0,1-.23,1.34,2.8,2.8,0,0,1-1.65,1.65,3.3,3.3,0,0,1-1.29.23,3.42,3.42,0,0,1-1.3-.23,2.85,2.85,0,0,1-1.66-1.65,3.8,3.8,0,0,1-.23-1.34,3.71,3.71,0,0,1,.23-1.33,2.81,2.81,0,0,1,.66-1,2.94,2.94,0,0,1,1-.63A3.62,3.62,0,0,1,66.8,13.19Zm0,5a1.06,1.06,0,0,0,1-.45,2.55,2.55,0,0,0,.3-1.38,2.48,2.48,0,0,0-.3-1.37,1.24,1.24,0,0,0-1.91,0,2.39,2.39,0,0,0-.31,1.37,2.45,2.45,0,0,0,.31,1.38A1.07,1.07,0,0,0,66.8,18.22Z"/><path d="M71,19.5V13.28H72.1a.8.8,0,0,1,.23,0,.35.35,0,0,1,.15.07.3.3,0,0,1,.1.14,1.67,1.67,0,0,1,.06.2l.1.58a3,3,0,0,1,.77-.83,1.51,1.51,0,0,1,.93-.31,1,1,0,0,1,.68.21l-.24,1.36a.26.26,0,0,1-.1.18.27.27,0,0,1-.19.05l-.24,0a1.69,1.69,0,0,0-.35,0,1.28,1.28,0,0,0-1.15.78V19.5Z"/><path d="M78.61,13.19a3.15,3.15,0,0,1,1.13.19,2.37,2.37,0,0,1,.88.56,2.5,2.5,0,0,1,.58.89A3.3,3.3,0,0,1,81.41,16a3,3,0,0,1,0,.34.4.4,0,0,1-.07.21.24.24,0,0,1-.13.11.56.56,0,0,1-.2,0H77.4a1.8,1.8,0,0,0,.47,1.13,1.44,1.44,0,0,0,1,.35,1.79,1.79,0,0,0,.56-.08,2.81,2.81,0,0,0,.42-.17l.33-.18a.76.76,0,0,1,.33-.08.39.39,0,0,1,.33.16l.54.67a2.83,2.83,0,0,1-.62.54,3.23,3.23,0,0,1-.68.32,3,3,0,0,1-.71.16,5.14,5.14,0,0,1-.66.05,3.53,3.53,0,0,1-1.23-.21,2.91,2.91,0,0,1-1-.64,2.81,2.81,0,0,1-.68-1,3.83,3.83,0,0,1-.25-1.45,3.29,3.29,0,0,1,.21-1.18,2.9,2.9,0,0,1,.61-1,3.06,3.06,0,0,1,1-.67A3.28,3.28,0,0,1,78.61,13.19Zm0,1.28a1.14,1.14,0,0,0-.84.3,1.56,1.56,0,0,0-.39.88h2.32a1.61,1.61,0,0,0-.06-.44,1.16,1.16,0,0,0-.18-.37,1,1,0,0,0-.34-.27A1.13,1.13,0,0,0,78.65,14.47Z"/></svg>